# xmcd CD database file
#
# Track frame offsets:
#	150
#	10025
#	44725
#	56640
#	67085
#	83375
#
# Disc length: 1290 seconds
#
# Revision: 1
# Processed by: cddbd v1.5.1PL0 Copyright (c) Steve Scherf et al.
# Submitted via: CDex 1.51
#
DISCID=47050806
DTITLE=G-CLEF - 「空がこんなに青いわけがない」サウンドトラック
DYEAR=1900
DGENRE=Jazz
TTITLE0=笹うどん−Theme
TTITLE1=ます[シューベルト]
TTITLE2=笹うどん−Version甲
TTITLE3=はっぱ
TTITLE4=笹うどん−Version乙
TTITLE5=レ・プレ(亜細亜の街で)
EXTD=
EXTT0=
EXTT1=
EXTT2=
EXTT3=
EXTT4=
EXTT5=
PLAYORDER=
